<mxfile host="app.diagrams.net" modified="2023-09-20T15:15:18.734Z" agent="Mozilla/5.0 (Windows NT 10.0; Win64; x64) AppleWebKit/537.36 (KHTML, like Gecko) Chrome/115.0.0.0 Safari/537.36" version="21.7.4" etag="Cwzg0NMBnaYUiEWNsiBQ" type="github">
  <diagram name="Page-1" id="MkINTt0ej12M0l5lCWqW">
    <mxGraphModel>
      <root>
        <mxCell id="0" />
        <mxCell id="1" parent="0" />
      </root>
    </mxGraphModel>
  </diagram>
</mxfile>
